<svg width="96" height="29" viewBox="0 0 96 29" fill="none" xmlns="http://www.w3.org/2000/svg">
    <path d="M33.8984 13.0484C31.3811 13.0484 29.1757 14.6944 29.1757 17.5775V24.6561H25.8623V10.1438H29.0143V12.3599C29.9718 10.8753 31.5424 10.402 33.8984 10.402" fill="#2E0E32"/>
    <path d="M43.548 23.6558C42.752 24.2905 41.5578 24.6132 40.3745 24.6132C37.2762 24.6132 35.5012 22.9673 35.5012 19.8475V13.0486H33.1667L33.5971 10.4022H35.5012V7.1748H38.8146V10.4022H41.1275V13.0486H38.8146V19.7722C38.8146 21.1492 39.5031 21.8915 40.7725 21.8915C41.461 21.8915 42.1173 21.7086 42.6229 21.3106L43.548 23.6558Z" fill="#2E0E32"/>
    <path d="M55.5861 18.4166H44.4948C44.8928 20.4821 46.6141 21.8053 49.0776 21.8053C50.6698 21.8053 51.9069 21.2997 52.9182 20.2669L54.6932 22.3002C53.4238 23.8063 51.4336 24.6023 49.0023 24.6023C44.2689 24.6023 41.1921 21.5579 41.1921 17.3516C41.1921 13.1453 44.2904 10.1223 48.4967 10.1223C52.6277 10.1223 55.6399 13.0054 55.6399 17.4269C55.6399 17.7066 55.6184 18.1046 55.5861 18.4166ZM44.4733 16.222H52.4986C52.2297 14.1888 50.6698 12.7795 48.4967 12.7795C46.3451 12.7795 44.7853 14.1565 44.4733 16.222Z" fill="#2E0E32"/>
    <path d="M55.0159 17.3623C55.0159 13.1237 58.1894 10.1331 62.6647 10.1331C65.4187 10.1331 67.6133 11.2734 68.6998 13.4142L66.161 14.8988C65.3111 13.554 64.0417 12.9408 62.6432 12.9408C60.2119 12.9408 58.3508 14.6298 58.3508 17.3623C58.3508 20.1163 60.2011 21.7838 62.6432 21.7838C64.0417 21.7838 65.3219 21.1706 66.161 19.8259L68.6998 21.3104C67.6133 23.4297 65.4187 24.6238 62.6647 24.6238C58.2002 24.6131 55.0159 21.5901 55.0159 17.3623Z" fill="#2E0E32"/>
    <path d="M11.4253 17.3945C11.4253 13.156 14.5988 10.1653 18.945 10.1653C23.3342 10.1653 26.4862 13.156 26.4862 17.3945C26.4862 21.6331 23.3342 24.6453 18.945 24.6453C14.5988 24.6453 11.4253 21.6331 11.4253 17.3945ZM23.1513 17.3945C23.1513 14.6943 21.3548 12.9731 18.945 12.9731C16.5675 12.9731 14.7602 14.6943 14.7602 17.3945C14.7602 20.0948 16.5568 21.816 18.945 21.816C21.3548 21.816 23.1513 20.0948 23.1513 17.3945Z" fill="#2E0E32"/>
    <path d="M81.405 17.642V16.3188C81.405 12.0587 78.8877 10.1223 75.499 10.1223C73.541 10.1223 71.8736 10.757 70.787 11.9188V4.78638H67.4736V24.6453H70.787V17.2762C70.787 14.4469 72.3792 13.0161 74.7352 13.0161C76.8545 13.0161 78.0916 14.2317 78.0916 16.7491V24.6453H81.405V24.2258V17.642V17.642Z" fill="#2E0E32"/>
    <path d="M0.043457 23.0639L1.31288 20.5466C2.56079 21.3642 4.46492 21.9559 6.23996 21.9559C8.33774 21.9559 9.20912 21.3749 9.20912 20.396C9.20912 17.6958 0.463012 20.2346 0.463012 14.5868C0.463012 11.9081 2.87276 10.1545 6.69179 10.1545C8.57441 10.1545 10.726 10.6064 11.9954 11.3702L10.726 13.8875C9.37049 13.0914 8.02576 12.8225 6.67027 12.8225C4.65856 12.8225 3.70112 13.4895 3.70112 14.4146C3.70112 17.2762 12.4472 14.7374 12.4472 20.2776C12.4472 22.9241 10.0052 24.6561 6.03556 24.6561C3.6796 24.6453 1.31288 23.9568 0.043457 23.0639Z" fill="#2E0E32"/>
    <path d="M84.3955 16.9535V19.5569L95.9279 15.0709L92.7651 13.823L84.3955 16.9535Z" fill="#5DB14E"/>
    <path d="M87.7735 9.19705L92.4531 7.4005V4.80786L84.3955 7.89536L87.7735 9.19705Z" fill="#F05734"/>
    <path d="M84.3955 10.4987V7.89526L95.9279 12.3705V15.0707L84.3955 10.4987Z" fill="#AFD136"/>
</svg>
