<svg width="20" height="20" viewBox="0 0 20 20" fill="none" xmlns="http://www.w3.org/2000/svg">
<path fill-rule="evenodd" clip-rule="evenodd" d="M5.83329 1.66669C6.29353 1.66669 6.66663 2.03978 6.66663 2.50002V3.33335H13.3333V2.50002C13.3333 2.03978 13.7064 1.66669 14.1666 1.66669C14.6269 1.66669 15 2.03978 15 2.50002V3.33335H15.8333C17.214 3.33335 18.3333 4.45264 18.3333 5.83335V15.8334C18.3333 17.2141 17.214 18.3334 15.8333 18.3334H4.16663C2.78591 18.3334 1.66663 17.2141 1.66663 15.8334V5.83335C1.66663 4.45264 2.78591 3.33335 4.16663 3.33335H4.99996V2.50002C4.99996 2.03978 5.37306 1.66669 5.83329 1.66669ZM13.3333 5.00002V5.83335C13.3333 6.29359 13.7064 6.66669 14.1666 6.66669C14.6269 6.66669 15 6.29359 15 5.83335V5.00002H15.8333C16.2935 5.00002 16.6666 5.37312 16.6666 5.83335V8.33335H3.33329V5.83335C3.33329 5.37312 3.70639 5.00002 4.16663 5.00002H4.99996V5.83335C4.99996 6.29359 5.37306 6.66669 5.83329 6.66669C6.29353 6.66669 6.66663 6.29359 6.66663 5.83335V5.00002H13.3333ZM3.33329 10V15.8334C3.33329 16.2936 3.70639 16.6667 4.16663 16.6667H15.8333C16.2935 16.6667 16.6666 16.2936 16.6666 15.8334V10H3.33329Z" fill="#232323"/>
</svg>
