<svg viewBox="0 0 25 25" fill="none" xmlns="http://www.w3.org/2000/svg" preserveAspectRatio="xMidYMid meet">
<path fill-rule="evenodd" clip-rule="evenodd" d="M17.5 4.44263H7.5C6.94771 4.44263 6.5 4.89034 6.5 5.44263V19.4426C6.5 19.9949 6.94772 20.4426 7.5 20.4426H17.5C18.0523 20.4426 18.5 19.9949 18.5 19.4426V5.44263C18.5 4.89034 18.0523 4.44263 17.5 4.44263ZM7.5 2.44263C5.84315 2.44263 4.5 3.78577 4.5 5.44263V19.4426C4.5 21.0995 5.84315 22.4426 7.5 22.4426H17.5C19.1569 22.4426 20.5 21.0995 20.5 19.4426V5.44263C20.5 3.78577 19.1569 2.44263 17.5 2.44263H7.5Z" fill="#111315"/>
<path fill-rule="evenodd" clip-rule="evenodd" d="M8.5 5.44263C7.94772 5.44263 7.5 5.89034 7.5 6.44263V8.44263C7.5 8.99491 7.94772 9.44263 8.5 9.44263H16.5C17.0523 9.44263 17.5 8.99491 17.5 8.44263V6.44263C17.5 5.89034 17.0523 5.44263 16.5 5.44263H8.5Z" fill="#111315"/>
<path fill-rule="evenodd" clip-rule="evenodd" d="M9 17.4426C8.44772 17.4426 8 17.8903 8 18.4426C8 18.9949 8.44772 19.4426 9 19.4426H12.5C13.0523 19.4426 13.5 18.9949 13.5 18.4426C13.5 17.8903 13.0523 17.4426 12.5 17.4426H9Z" fill="#111315"/>
<path d="M10 11.4426C10 11.9949 9.55228 12.4426 9 12.4426C8.44772 12.4426 8 11.9949 8 11.4426C8 10.8903 8.44772 10.4426 9 10.4426C9.55228 10.4426 10 10.8903 10 11.4426Z" fill="#111315"/>
<path d="M10 14.9426C10 15.4949 9.55228 15.9426 9 15.9426C8.44772 15.9426 8 15.4949 8 14.9426C8 14.3903 8.44772 13.9426 9 13.9426C9.55228 13.9426 10 14.3903 10 14.9426Z" fill="#111315"/>
<path d="M13.5 11.4426C13.5 11.9949 13.0523 12.4426 12.5 12.4426C11.9477 12.4426 11.5 11.9949 11.5 11.4426C11.5 10.8903 11.9477 10.4426 12.5 10.4426C13.0523 10.4426 13.5 10.8903 13.5 11.4426Z" fill="#111315"/>
<path d="M13.5 14.9426C13.5 15.4949 13.0523 15.9426 12.5 15.9426C11.9477 15.9426 11.5 15.4949 11.5 14.9426C11.5 14.3903 11.9477 13.9426 12.5 13.9426C13.0523 13.9426 13.5 14.3903 13.5 14.9426Z" fill="#111315"/>
<path d="M17 11.4426C17 11.9949 16.5523 12.4426 16 12.4426C15.4477 12.4426 15 11.9949 15 11.4426C15 10.8903 15.4477 10.4426 16 10.4426C16.5523 10.4426 17 10.8903 17 11.4426Z" fill="#111315"/>
<path d="M17 14.9426C17 15.4949 16.5523 15.9426 16 15.9426C15.4477 15.9426 15 15.4949 15 14.9426C15 14.3903 15.4477 13.9426 16 13.9426C16.5523 13.9426 17 14.3903 17 14.9426Z" fill="#111315"/>
<path d="M17 18.4426C17 18.9949 16.5523 19.4426 16 19.4426C15.4477 19.4426 15 18.9949 15 18.4426C15 17.8903 15.4477 17.4426 16 17.4426C16.5523 17.4426 17 17.8903 17 18.4426Z" fill="#111315"/>
</svg>
