<svg viewBox="0 0 25 25" fill="none" xmlns="http://www.w3.org/2000/svg">
<path fill-rule="evenodd" clip-rule="evenodd" d="M5.5 22.4427C3.84315 22.4427 2.5 21.0995 2.5 19.4427V11.7788C2.5 10.9283 2.86096 10.1178 3.49311 9.54888L10.4931 3.24888C11.634 2.22205 13.366 2.22205 14.5069 3.24888L21.5069 9.54888C22.139 10.1178 22.5 10.9283 22.5 11.7788V19.4427C22.5 21.0995 21.1569 22.4427 19.5 22.4427H5.5ZM20.5 11.7788V19.4427C20.5 19.995 20.0523 20.4427 19.5 20.4427H16.5V15.4427C16.5 13.7858 15.1569 12.4427 13.5 12.4427H11.5C9.84315 12.4427 8.5 13.7858 8.5 15.4427V20.4427H5.5C4.94772 20.4427 4.5 19.995 4.5 19.4427V11.7788C4.5 11.4953 4.62032 11.2251 4.83104 11.0355L11.831 4.73547C12.2113 4.39319 12.7887 4.39319 13.169 4.73547L20.169 11.0355C20.3797 11.2251 20.5 11.4953 20.5 11.7788ZM10.5 20.4427V15.4427C10.5 14.8904 10.9477 14.4427 11.5 14.4427H13.5C14.0523 14.4427 14.5 14.8904 14.5 15.4427V20.4427H10.5Z" fill="#111315"/>
</svg>
