<svg width="48" height="48" viewBox="0 0 48 48" fill="none" xmlns="http://www.w3.org/2000/svg">
<rect width="48" height="48" rx="24" fill="#7FF26B"/>
<path fill-rule="evenodd" clip-rule="evenodd" d="M17 18H31C31.3862 18 31.7213 18.219 31.8879 18.5395L24.5547 23.4283C24.2188 23.6523 23.7812 23.6523 23.4453 23.4283L16.1121 18.5395C16.2787 18.219 16.6138 18 17 18ZM16 20.8685V29C16 29.5523 16.4477 30 17 30H31C31.5523 30 32 29.5523 32 29V20.8685L25.6641 25.0924C24.6564 25.7642 23.3436 25.7642 22.3359 25.0924L16 20.8685ZM14 19C14 17.3431 15.3431 16 17 16H31C32.6569 16 34 17.3431 34 19V29C34 30.6569 32.6569 32 31 32H17C15.3431 32 14 30.6569 14 29V19Z" fill="#151515"/>
</svg>
