<svg width="48" height="48" viewBox="0 0 48 48" fill="none" xmlns="http://www.w3.org/2000/svg">
<rect width="48" height="48" rx="24" fill="#FAC1B4"/>
<path fill-rule="evenodd" clip-rule="evenodd" d="M21 18.2918C20.3331 18.4906 19.6959 18.7889 19.111 19.1797C17.9599 19.9489 17.0627 21.0421 16.5328 22.3212C16.003 23.6003 15.8644 25.0078 16.1345 26.3656C16.4046 27.7235 17.0713 28.9708 18.0503 29.9497C19.0292 30.9287 20.2765 31.5954 21.6344 31.8655C22.9922 32.1356 24.3997 31.997 25.6788 31.4671C26.9579 30.9373 28.0511 30.0401 28.8203 28.889C29.2111 28.3041 29.5094 27.6669 29.7082 27H27.5912C27.4728 27.2717 27.3301 27.5336 27.1639 27.7822C26.6136 28.6058 25.8315 29.2476 24.9164 29.6267C24.0014 30.0057 22.9944 30.1049 22.023 29.9117C21.0516 29.7184 20.1593 29.2415 19.4589 28.5411C18.7585 27.8407 18.2816 26.9484 18.0883 25.977C17.8951 25.0055 17.9943 23.9986 18.3733 23.0836C18.7523 22.1685 19.3942 21.3864 20.2178 20.8361C20.4664 20.6699 20.7283 20.5272 21 20.4088V18.2918ZM22.002 16.0555C22.5509 15.9942 23 16.4477 23 17V20.9921C23 21.5444 22.5404 21.9766 22.0183 22.1568C21.7761 22.2404 21.5443 22.3551 21.3289 22.499C20.8343 22.8295 20.4487 23.2993 20.2211 23.8489C19.9934 24.3985 19.9338 25.0033 20.0499 25.5868C20.166 26.1703 20.4524 26.7062 20.8731 27.1269C21.2938 27.5476 21.8297 27.834 22.4132 27.9501C22.9967 28.0661 23.6015 28.0066 24.1511 27.7789C24.7007 27.5513 25.1705 27.1657 25.501 26.6711C25.6449 26.4557 25.7596 26.2239 25.8432 25.9817C26.0234 25.4596 26.4556 25 27.0079 25H31C31.5523 25 32.0057 25.4491 31.9445 25.9979C31.7853 27.4249 31.2863 28.7982 30.4832 30.0001C29.4943 31.4802 28.0887 32.6337 26.4442 33.3149C24.7996 33.9961 22.99 34.1743 21.2442 33.8271C19.4984 33.4798 17.8947 32.6226 16.636 31.3639C15.3774 30.1053 14.5202 28.5016 14.1729 26.7558C13.8257 25.01 14.0039 23.2004 14.6851 21.5558C15.3663 19.9113 16.5198 18.5057 17.9999 17.5168C19.2017 16.7137 20.5751 16.2147 22.002 16.0555Z" fill="#232323"/>
<path fill-rule="evenodd" clip-rule="evenodd" d="M31.7082 21C31.6397 20.7702 31.5593 20.5436 31.4672 20.3212C31.1154 19.4719 30.5998 18.7002 29.9497 18.0502C29.2997 17.4002 28.5281 16.8846 27.6788 16.5328C27.4564 16.4407 27.2298 16.3603 27 16.2918V18.4088C27.5747 18.6591 28.0975 19.0153 28.5411 19.4589C28.9847 19.9025 29.3409 20.4253 29.5912 21H31.7082ZM33.9445 22.002C34.0057 22.5509 33.5523 23 33 23H29.0079C28.4556 23 28.0234 22.5403 27.8432 22.0183C27.8235 21.9613 27.8021 21.9048 27.7789 21.8489C27.6278 21.484 27.4062 21.1524 27.1269 20.8731C26.8476 20.5938 26.516 20.3722 26.1511 20.2211C26.0952 20.1979 26.0387 20.1765 25.9817 20.1568C25.4596 19.9765 25 19.5444 25 18.9921V15C25 14.4477 25.4491 13.9942 25.9979 14.0555C26.8372 14.1491 27.6609 14.3606 28.4442 14.6851C29.5361 15.1374 30.5282 15.8003 31.364 16.636C32.1997 17.4717 32.8626 18.4639 33.3149 19.5558C33.6394 20.3391 33.8509 21.1627 33.9445 22.002Z" fill="#232323"/>
</svg>
