<svg width="37" height="37" viewBox="0 0 37 37" fill="none" xmlns="http://www.w3.org/2000/svg">
<path fill-rule="evenodd" clip-rule="evenodd" d="M4 19.2213C4 18.3929 4.83947 17.7213 5.875 17.7213H32.125C33.1605 17.7213 34 18.3929 34 19.2213C34 20.0497 33.1605 20.7213 32.125 20.7213H5.875C4.83947 20.7213 4 20.0497 4 19.2213Z" fill="#3F3F3F"/>
<path fill-rule="evenodd" clip-rule="evenodd" d="M4 29.2213C4 28.3929 4.83947 27.7213 5.875 27.7213H32.125C33.1605 27.7213 34 28.3929 34 29.2213C34 30.0497 33.1605 30.7213 32.125 30.7213H5.875C4.83947 30.7213 4 30.0497 4 29.2213Z" fill="#3F3F3F"/>
<path fill-rule="evenodd" clip-rule="evenodd" d="M4 8.22131C4 7.39289 4.83947 6.72131 5.875 6.72131H32.125C33.1605 6.72131 34 7.39289 34 8.22131C34 9.04974 33.1605 9.72131 32.125 9.72131H5.875C4.83947 9.72131 4 9.04974 4 8.22131Z" fill="#3F3F3F"/>
</svg>
