<svg width="48" height="48" viewBox="0 0 48 48" fill="none" xmlns="http://www.w3.org/2000/svg">
<rect width="48" height="48" rx="24" fill="#232323"/>
<path fill-rule="evenodd" clip-rule="evenodd" d="M17 30.7678C17.6838 30.3727 18.551 30.4133 19.2 30.9L20 31.5L20.8 30.9C21.5111 30.3667 22.4889 30.3667 23.2 30.9L24 31.5L24.8 30.9C25.5111 30.3667 26.4889 30.3667 27.2 30.9L28 31.5L28.8 30.9C29.449 30.4133 30.3162 30.3727 31 30.7678V17.2323C30.3162 17.6274 29.449 17.5868 28.8 17.1L28 16.5L27.2 17.1C26.4889 17.6334 25.5111 17.6334 24.8 17.1L24 16.5L23.2 17.1C22.4889 17.6334 21.5111 17.6334 20.8 17.1L20 16.5L19.2 17.1C18.551 17.5868 17.6838 17.6274 17 17.2323V30.7678ZM22 15.5L20.6 14.45C20.2444 14.1834 19.7556 14.1834 19.4 14.45L18 15.5L16.6402 14.3669C15.9889 13.8241 15 14.2873 15 15.1351V32.865C15 33.7128 15.9889 34.176 16.6402 33.6332L18 32.5L19.4 33.55C19.7556 33.8167 20.2444 33.8167 20.6 33.55L22 32.5L23.4 33.55C23.7556 33.8167 24.2444 33.8167 24.6 33.55L26 32.5L27.4 33.55C27.7556 33.8167 28.2444 33.8167 28.6 33.55L30 32.5L31.3598 33.6332C32.0111 34.176 33 33.7128 33 32.865V15.1351C33 14.2873 32.0111 13.8241 31.3598 14.3669L30 15.5L28.6 14.45C28.2444 14.1834 27.7556 14.1834 27.4 14.45L26 15.5L24.6 14.45C24.2444 14.1834 23.7556 14.1834 23.4 14.45L22 15.5Z" fill="white"/>
<path fill-rule="evenodd" clip-rule="evenodd" d="M19 22C19 21.4477 19.4477 21 20 21H28C28.5523 21 29 21.4477 29 22C29 22.5523 28.5523 23 28 23H20C19.4477 23 19 22.5523 19 22Z" fill="white"/>
<path fill-rule="evenodd" clip-rule="evenodd" d="M19 26C19 25.4477 19.4477 25 20 25H24C24.5523 25 25 25.4477 25 26C25 26.5523 24.5523 27 24 27H20C19.4477 27 19 26.5523 19 26Z" fill="white"/>
</svg>
