<svg viewBox="0 0 25 25" fill="none" xmlns="http://www.w3.org/2000/svg">
<path fill-rule="evenodd" clip-rule="evenodd" d="M3.5 2.44263C4.05228 2.44263 4.5 2.89034 4.5 3.44263V19.4426C4.5 19.9949 4.94772 20.4426 5.5 20.4426H21.5C22.0523 20.4426 22.5 20.8903 22.5 21.4426C22.5 21.9949 22.0523 22.4426 21.5 22.4426H5.5C3.84315 22.4426 2.5 21.0995 2.5 19.4426V3.44263C2.5 2.89034 2.94772 2.44263 3.5 2.44263Z" fill="#111315"/>
<path fill-rule="evenodd" clip-rule="evenodd" d="M7.5 8.44263C8.05228 8.44263 8.5 8.89034 8.5 9.44263V17.4426C8.5 17.9949 8.05228 18.4426 7.5 18.4426C6.94772 18.4426 6.5 17.9949 6.5 17.4426V9.44263C6.5 8.89034 6.94772 8.44263 7.5 8.44263Z" fill="#111315"/>
<path fill-rule="evenodd" clip-rule="evenodd" d="M11.5 14.4426C12.0523 14.4426 12.5 14.8903 12.5 15.4426V17.4426C12.5 17.9949 12.0523 18.4426 11.5 18.4426C10.9477 18.4426 10.5 17.9949 10.5 17.4426V15.4426C10.5 14.8903 10.9477 14.4426 11.5 14.4426Z" fill="#111315"/>
<path fill-rule="evenodd" clip-rule="evenodd" d="M15.5 4.44263C16.0523 4.44263 16.5 4.89034 16.5 5.44263V17.4426C16.5 17.9949 16.0523 18.4426 15.5 18.4426C14.9477 18.4426 14.5 17.9949 14.5 17.4426V5.44263C14.5 4.89034 14.9477 4.44263 15.5 4.44263Z" fill="#111315"/>
<path fill-rule="evenodd" clip-rule="evenodd" d="M19.5 10.4426C20.0523 10.4426 20.5 10.8903 20.5 11.4426V17.4426C20.5 17.9949 20.0523 18.4426 19.5 18.4426C18.9477 18.4426 18.5 17.9949 18.5 17.4426V11.4426C18.5 10.8903 18.9477 10.4426 19.5 10.4426Z" fill="#111315"/>
</svg>
