<svg width="48" height="48" viewBox="0 0 48 48" fill="none" xmlns="http://www.w3.org/2000/svg">
<rect width="48" height="48" rx="24" fill="#D0E485"/>
<path fill-rule="evenodd" clip-rule="evenodd" d="M21 16H20C19.4477 16 19 16.4477 19 17V31C19 31.5523 19.4477 32 20 32H28C28.5523 32 29 31.5523 29 31V17C29 16.4477 28.5523 16 28 16H27C27 16.8284 26.3284 17.5 25.5 17.5H22.5C21.6716 17.5 21 16.8284 21 16ZM28 14C29.6569 14 31 15.3431 31 17V31C31 32.6569 29.6569 34 28 34H20C18.3431 34 17 32.6569 17 31V17C17 15.3431 18.3431 14 20 14H28Z" fill="#151515"/>
</svg>
